<svg width="120" height="120" viewBox="0 0 120 120" fill="none" xmlns="http://www.w3.org/2000/svg">
<g clip-path="url(#clip0)">
<path fill-rule="evenodd" clip-rule="evenodd" d="M31.9236 97.4081C42.3273 105.011 55.225 107.967 67.5917 106.056L67.2844 104.08C55.433 105.911 43.0727 103.078 33.1024 95.7919L31.9236 97.4081Z" fill="#03C1F4"/>
<path fill-rule="evenodd" clip-rule="evenodd" d="M28.7536 97.4906L32.5291 92.8261C30.5385 91.211 28.662 89.399 26.9272 87.3919C21.2486 80.8217 17.8576 73.0511 16.6834 65.0517L10.7471 65.9288C12.0814 75.019 15.9348 83.8493 22.3878 91.3153C24.3592 93.5961 26.4916 95.6553 28.7536 97.4906Z" fill="#03C1F4"/>
<path fill-rule="evenodd" clip-rule="evenodd" d="M45.8761 12.7991C39.7808 14.7033 33.9679 17.8623 28.8285 22.3043C16.8078 32.6939 11.1992 47.7449 12.3666 62.4557L14.3604 62.2958C13.2416 48.198 18.6165 33.7742 30.1363 23.8175C35.0616 19.5605 40.6322 16.5332 46.4736 14.7083L45.8761 12.7991Z" fill="#03C1F4"/>
<path fill-rule="evenodd" clip-rule="evenodd" d="M102.208 35.3461C100.63 32.507 98.7395 29.7862 96.5317 27.2318C84.5642 13.3856 66.412 8.04688 49.719 11.772L50.1564 13.724C66.1538 10.1541 83.5497 15.2704 95.0185 28.5397C97.1343 30.9876 98.9464 33.595 100.458 36.3158L102.208 35.3461Z" fill="#03C1F4"/>
<path fill-rule="evenodd" clip-rule="evenodd" d="M105.412 37.2053C114.811 57.0124 110.305 81.4148 92.9119 96.4482C86.2798 102.18 78.5712 105.861 70.5602 107.547L69.319 101.676C76.3686 100.192 83.1522 96.9531 88.9885 91.9087C104.295 78.6794 108.26 57.2053 99.9889 39.775L105.412 37.2053Z" fill="#03C1F4"/>
<path fill-rule="evenodd" clip-rule="evenodd" d="M41 51.5187C39.8954 51.5187 39 52.4141 39 53.5187V78.95C39 80.0546 39.8954 80.95 41 80.95H79.0448C80.1493 80.95 81.0448 80.0546 81.0448 78.95V53.5187C81.0448 52.4141 80.1493 51.5187 79.0448 51.5187H41ZM64.2269 61.8296C64.2269 63.1603 63.5453 64.3395 62.4965 65.0676C61.7398 65.5929 61.0735 66.3555 61.0735 67.2767V70.7892C61.0735 71.3697 60.6029 71.8403 60.0224 71.8403C59.4419 71.8403 58.9713 71.3697 58.9713 70.7892V67.2767C58.9713 66.3555 58.305 65.5929 57.5483 65.0676C56.4995 64.3395 55.8179 63.1603 55.8179 61.8296C55.8179 59.6181 57.7003 57.8254 60.0224 57.8254C62.3445 57.8254 64.2269 59.6181 64.2269 61.8296Z" fill="#03C1F4"/>
<path fill-rule="evenodd" clip-rule="evenodd" d="M71.5847 64.8328C72.1652 64.8328 72.6358 64.3622 72.6358 63.7817V44.8822V43.1641C72.6358 43.1113 72.593 43.0685 72.5402 43.0685C72.4945 43.0685 72.4551 43.0359 72.446 42.991C71.4085 37.8824 66.241 34 60.0224 34C53.8038 34 48.6363 37.8824 47.5987 42.991C47.5896 43.0359 47.5503 43.0685 47.5046 43.0685C47.4518 43.0685 47.409 43.1113 47.409 43.1641V44.8822V63.7817C47.409 64.3622 47.8796 64.8328 48.4601 64.8328C49.0406 64.8328 49.5112 64.3622 49.5112 63.7817V45.5401V44.3315C49.5112 44.3017 49.5353 44.2776 49.5651 44.2776C49.5916 44.2776 49.6141 44.2583 49.6184 44.2321C50.3495 39.8139 54.729 36.4183 60.0224 36.4183C65.3158 36.4183 69.6953 39.8139 70.4263 44.2321C70.4307 44.2583 70.4532 44.2776 70.4797 44.2776C70.5095 44.2776 70.5336 44.3017 70.5336 44.3315V45.5401V63.7817C70.5336 64.3622 71.0042 64.8328 71.5847 64.8328Z" fill="#03C1F4"/>
</g>
<defs>
<clipPath id="clip0">
<rect width="120" height="120" fill="white"/>
</clipPath>
</defs>
</svg>
