<svg width="120" height="120" viewBox="0 0 120 120" fill="none" xmlns="http://www.w3.org/2000/svg">
<path fill-rule="evenodd" clip-rule="evenodd" d="M35.9392 79.9392C46.9514 93.2276 66.6509 95.0729 79.9392 84.0607C93.2276 73.0486 95.0729 53.3491 84.0607 40.0607C73.0486 26.7724 53.3491 24.9271 40.0607 35.9393C26.7724 46.9514 24.9271 66.6509 35.9392 79.9392ZM39.4481 77.0314C48.8543 88.3819 65.6809 89.9581 77.0314 80.5519C88.3819 71.1457 89.9581 54.3191 80.5519 42.9686C71.1457 31.6181 54.319 30.0419 42.9686 39.4481C31.6181 48.8543 30.0419 65.681 39.4481 77.0314Z" fill="#03C1F4"/>
<circle cx="60" cy="60" r="2" fill="#03C1F4"/>
<path fill-rule="evenodd" clip-rule="evenodd" d="M46.3432 83.5267C45.14 82.8388 44.039 82.0493 43.0735 81.1581C46.0031 77.252 51.5368 70.4163 51.5368 70.4163H69.4398C69.4398 70.4163 73.9969 75.9499 77.252 81.1581C76.458 82.0655 75.5016 82.8675 74.4179 83.564C71.1588 78.9561 67.8122 74.3224 67.8122 74.3224H52.8388C52.8388 74.3224 49.2193 79.631 46.3432 83.5267Z" fill="#03C1F4"/>
<path d="M63.6806 55.2589L77.5443 45.461L65.3422 57.2639L63.6806 55.2589Z" fill="#03C1F4"/>
<path fill-rule="evenodd" clip-rule="evenodd" d="M14.2303 69.8452C18.3923 87.8661 32.7016 102.004 50.8163 105.918L51.2407 103.963C33.8807 100.212 20.1676 86.6634 16.179 69.3933L14.2303 69.8452Z" fill="#03C1F4"/>
<path fill-rule="evenodd" clip-rule="evenodd" d="M11.7781 67.8347L17.6847 66.7745C17.2348 64.251 17 61.6529 17 59C17 50.3159 19.5158 42.2194 23.8583 35.3995L18.7935 32.1813C13.8588 39.9311 11 49.1317 11 59C11 62.0147 11.2668 64.967 11.7781 67.8347Z" fill="#03C1F4"/>
<path fill-rule="evenodd" clip-rule="evenodd" d="M80.1133 14.9563C74.2566 12.4111 67.7931 11 61 11C45.1117 11 31.0263 18.7196 22.29 30.6126L23.9029 31.7954C32.2752 20.3979 45.7737 13 61 13C67.51 13 73.7042 14.3523 79.3169 16.7914L80.1133 14.9563Z" fill="#03C1F4"/>
<path fill-rule="evenodd" clip-rule="evenodd" d="M93.4515 94.3685C103.009 85.5945 109 72.9969 109 59C109 40.6987 98.7577 24.7896 83.6924 16.6922L82.7469 18.455C97.1844 26.215 107 41.4612 107 59C107 72.4137 101.259 84.4864 92.0993 92.8948L93.4515 94.3685Z" fill="#03C1F4"/>
<path fill-rule="evenodd" clip-rule="evenodd" d="M92.746 97.6307C84.1116 104.735 73.0539 109 61 109C58.0449 109 55.1496 108.744 52.3353 108.252L53.3751 102.342C55.8517 102.774 58.3995 103 61 103C71.6075 103 81.3382 99.2464 88.9365 92.995L92.746 97.6307Z" fill="#03C1F4"/>
</svg>
